<svg version="1.1" xmlns="http://www.w3.org/2000/svg" xmlns:xlink="http://www.w3.org/1999/xlink" viewBox="65 82 266 60" xml:space="preserve">
<style type="text/css">
.st18{fill:#252972;}
.st35{fill:none;stroke:#FFAE1F;stroke-width:2.3229;stroke-miterlimit:10;}
</style>
<g>
	<g>
		<path class="st18" d="M70.1,111.4L70.1,111.4c0-9.8,7.6-17.8,17.9-17.8c6.1,0,9.9,1.7,13.4,4.7l-4.7,5.7c-2.6-2.2-5-3.5-8.9-3.5
			c-5.5,0-9.8,4.8-9.8,10.6v0.1c0,6.2,4.3,10.8,10.3,10.8c2.7,0,5.2-0.7,7.1-2v-4.9h-7.6v-6.5h14.8v14.8c-3.5,3-8.3,5.4-14.6,5.4
			C77.5,128.9,70.1,121.5,70.1,111.4z"/>
		<path class="st18" d="M131.2,122v-16.3h-3.6v-2.2h3.6v-8h2.4v8h8.7v2.2h-8.7v16c0,3.6,2.1,4.8,5,4.8c1.2,0,2.2-0.2,3.7-0.9v2.2
			c-1.3,0.6-2.5,0.9-4,0.9C134.3,128.8,131.2,126.7,131.2,122z"/>
		<path class="st18" d="M149.4,103.5h2.4v7.1c2-4.4,6.1-7.7,11-7.5v2.6h-0.2c-5.8,0-10.8,4.3-10.8,12.4v10.2h-2.4V103.5z"/>
		<path class="st18" d="M165.6,121.1L165.6,121.1c0-5.3,4.4-8.2,10.9-8.2c3.5,0,5.9,0.4,8.2,1.1v-1.1c0-5-3.1-7.6-8.2-7.6
			c-3,0-5.5,0.8-7.8,2l-0.9-2.1c2.7-1.3,5.4-2.1,8.8-2.1c3.4,0,6,0.9,7.9,2.7c1.7,1.7,2.5,4,2.5,7v15.5h-2.3v-4.1
			c-1.7,2.4-4.8,4.7-9.5,4.7C170.6,128.9,165.6,126.3,165.6,121.1z M184.8,119v-2.8c-2.1-0.5-4.9-1.1-8.4-1.1
			c-5.3,0-8.2,2.3-8.2,5.8v0.1c0,3.6,3.4,5.7,7.2,5.7C180.4,126.7,184.8,123.6,184.8,119z"/>
		<path class="st18" d="M195.7,103.5h2.4v4.6c1.7-2.9,4.4-5.2,9-5.2c6.3,0,10,4.3,10,10.2v15.2h-2.4v-14.8c0-5.1-2.9-8.5-7.9-8.5
			c-4.9,0-8.6,3.7-8.6,8.9v14.4h-2.4V103.5z"/>
		<path class="st18" d="M223.4,125.2l1.4-1.9c2.7,2.1,5.8,3.3,8.9,3.3c3.4,0,6-1.9,6-4.7v-0.1c0-2.9-3.1-4-6.6-5
			c-4-1.2-8.5-2.4-8.5-6.8v-0.1c0-4,3.4-6.9,8.2-6.9c3,0,6.3,1.1,8.8,2.7l-1.3,2c-2.3-1.5-5-2.5-7.7-2.5c-3.4,0-5.7,1.9-5.7,4.3
			v0.1c0,2.8,3.4,3.8,6.9,4.8c4,1.1,8.2,2.6,8.2,7v0.1c0,4.4-3.8,7.3-8.6,7.3C230,128.8,226,127.4,223.4,125.2z"/>
		<path class="st18" d="M250.1,92.7h2.4v35.6h-2.4V92.7z"/>
		<path class="st18" d="M259.9,121.1L259.9,121.1c0-5.3,4.4-8.2,10.9-8.2c3.5,0,5.9,0.4,8.2,1.1v-1.1c0-5-3.1-7.6-8.2-7.6
			c-3,0-5.5,0.8-7.8,2l-0.9-2.1c2.7-1.3,5.4-2.1,8.8-2.1c3.4,0,6,0.9,7.9,2.7c1.7,1.7,2.5,4,2.5,7v15.5H279v-4.1
			c-1.7,2.4-4.8,4.7-9.5,4.7C264.9,128.9,259.9,126.3,259.9,121.1z M279.1,119v-2.8c-2.1-0.5-4.9-1.1-8.4-1.1
			c-5.3,0-8.2,2.3-8.2,5.8v0.1c0,3.6,3.4,5.7,7.2,5.7C274.7,126.7,279.1,123.6,279.1,119z"/>
		<path class="st18" d="M291,122v-16.3h-3.6v-2.2h3.6v-8h2.4v8h8.7v2.2h-8.7v16c0,3.6,2.1,4.8,5,4.8c1.2,0,2.2-0.2,3.7-0.9v2.2
			c-1.3,0.6-2.5,0.9-4,0.9C294.1,128.8,291,126.7,291,122z"/>
		<path class="st18" d="M306.8,116L306.8,116c0-7.3,5.1-13.1,11.8-13.1c7,0,11.4,5.7,11.4,13c0,0.4,0,0.6,0,1h-20.6
			c0.4,6.2,4.9,9.8,9.8,9.8c3.9,0,6.5-1.7,8.5-3.9l1.7,1.5c-2.5,2.7-5.5,4.7-10.3,4.7C312.4,128.9,306.8,123.7,306.8,116z
			 M327.4,114.7c-0.3-5-3.2-9.7-8.9-9.7c-4.9,0-8.7,4.1-9.2,9.7H327.4z"/>
	</g>
	<line class="st35" x1="117" y1="139.7" x2="117" y2="85.3"/>
</g>
</svg>